# xmcd
#
# Track frame offsets: 
#        150
#        22792
#        39902
#        59262
#        79859
#        105819
#        124954
#        146901
#        166073
#        184903
#
# Disc length: 2748 seconds
#
# Revision: 0
# Processed by: cddbd v1.5.2PL0 Copyright (c) Steve Scherf et al.
# Submitted via: ExactAudioCopy v1.3
#
DISCID=770aba0a
DTITLE=Nathan Beretta - Where I Belong
DYEAR=2018
DGENRE=Blues Rock
TTITLE0=Telephone Blues
TTITLE1=Where I Belong
TTITLE2=Feel So Good
TTITLE3=If the Washing Don't Get You
TTITLE4=I'm Gona Dance
TTITLE5=Hurricane
TTITLE6=Fooling Yourself
TTITLE7=Its About Money
TTITLE8=Really Are Through
TTITLE9=Ain't Givin' Me Some
EXTD=
EXTT0=
EXTT1=
EXTT2=
EXTT3=
EXTT4=
EXTT5=
EXTT6=
EXTT7=
EXTT8=
EXTT9=
PLAYORDER=
